<?xml version="1.0" encoding="UTF-8"?>
<svg width="62px" height="72px" viewBox="0 0 62 72" version="1.1" xmlns="http://www.w3.org/2000/svg" xmlns:xlink="http://www.w3.org/1999/xlink">
    <!-- Generator: Sketch 51.3 (57544) - http://www.bohemiancoding.com/sketch -->
    <title>Group</title>
    <desc>Created with Sketch.</desc>
    <defs>
        <polygon id="path-1" points="0.190823579 0.0544680851 7.44211957 0.0544680851 7.44211957 6.92668085 0.190823579 6.92668085"></polygon>
        <polygon id="path-3" points="0 0.0114042553 17.5108696 0.0114042553 17.5108696 11.4893617 0 11.4893617"></polygon>
        <polygon id="path-5" points="0.190823579 0.0544680851 7.44211957 0.0544680851 7.44211957 6.92668085 0.190823579 6.92668085"></polygon>
        <polygon id="path-7" points="0 0.0114042553 17.5108696 0.0114042553 17.5108696 11.4893617 0 11.4893617"></polygon>
        <polygon id="path-9" points="0.190823579 0.0544680851 7.44211957 0.0544680851 7.44211957 6.92668085 0.190823579 6.92668085"></polygon>
        <polygon id="path-11" points="0 0.0114042553 17.5108696 0.0114042553 17.5108696 11.4893617 0 11.4893617"></polygon>
        <polygon id="path-13" points="0.190823579 0.0544680851 7.44211957 0.0544680851 7.44211957 6.92668085 0.190823579 6.92668085"></polygon>
        <polygon id="path-15" points="0 0.0114042553 17.5108696 0.0114042553 17.5108696 11.4893617 0 11.4893617"></polygon>
        <polygon id="path-17" points="0.190823579 0.0544680851 7.44211957 0.0544680851 7.44211957 6.92668085 0.190823579 6.92668085"></polygon>
        <polygon id="path-19" points="0 0.0114042553 17.5108696 0.0114042553 17.5108696 11.4893617 0 11.4893617"></polygon>
        <polygon id="path-21" points="0.190823579 0.0544680851 7.44211957 0.0544680851 7.44211957 6.92668085 0.190823579 6.92668085"></polygon>
        <polygon id="path-23" points="0 0.0114042553 17.5108696 0.0114042553 17.5108696 11.4893617 0 11.4893617"></polygon>
        <polygon id="path-25" points="0.190823579 0.0544680851 7.44211957 0.0544680851 7.44211957 6.92668085 0.190823579 6.92668085"></polygon>
        <polygon id="path-27" points="0 0.0114042553 17.5108696 0.0114042553 17.5108696 11.4893617 0 11.4893617"></polygon>
        <polygon id="path-29" points="0.190823579 0.0544680851 7.44211957 0.0544680851 7.44211957 6.92668085 0.190823579 6.92668085"></polygon>
        <polygon id="path-31" points="0 0.0114042553 17.5108696 0.0114042553 17.5108696 11.4893617 0 11.4893617"></polygon>
        <polygon id="path-33" points="0.190823579 0.0544680851 7.44211957 0.0544680851 7.44211957 6.92668085 0.190823579 6.92668085"></polygon>
        <polygon id="path-35" points="0 0.0114042553 17.5108696 0.0114042553 17.5108696 11.4893617 0 11.4893617"></polygon>
    </defs>
    <g id="Main" stroke="none" stroke-width="1" fill="none" fill-rule="evenodd">
        <g id="Desktop" transform="translate(-841.000000, -615.000000)">
            <g id="Group-2" transform="translate(762.000000, 588.000000)">
                <g id="Group" transform="translate(79.000000, 27.000000)">
                    <g id="Group-7">
                        <g id="Group-3" transform="translate(4.938963, 0.371149)">
                            <mask id="mask-2" fill="white">
                                <use xlink:href="#path-1"></use>
                            </mask>
                            <g id="Clip-2"></g>
                            <path d="M3.81647157,6.92668085 C1.81394649,6.92668085 0.190823579,5.38838298 0.190823579,3.49051064 C0.190823579,1.5926383 1.81394649,0.0543404255 3.81647157,0.0543404255 C5.81899666,0.0543404255 7.44211957,1.5926383 7.44211957,3.49051064 C7.44211957,5.38838298 5.81899666,6.92668085 3.81647157,6.92668085" id="Fill-1" fill="#F15A83" mask="url(#mask-2)"></path>
                        </g>
                        <g id="Group-6" transform="translate(0.000000, 8.456255)">
                            <mask id="mask-4" fill="white">
                                <use xlink:href="#path-3"></use>
                            </mask>
                            <g id="Clip-5"></g>
                            <path d="M13.6001087,0.0114042553 L3.91076087,0.0114042553 C1.75063796,0.0114042553 0,1.67055319 0,3.71778723 L0,11.4897021 L17.5108696,11.4897021 L17.5108696,3.71778723 C17.5108696,1.67055319 15.7602316,0.0114042553 13.6001087,0.0114042553" id="Fill-4" fill="#F15A83" mask="url(#mask-4)"></path>
                        </g>
                    </g>
                    <g id="Group-7-Copy-4" transform="translate(21.402174, 26.000000)">
                        <g id="Group-3" transform="translate(4.938963, 0.371149)">
                            <mask id="mask-6" fill="white">
                                <use xlink:href="#path-5"></use>
                            </mask>
                            <g id="Clip-2"></g>
                            <path d="M3.81647157,6.92668085 C1.81394649,6.92668085 0.190823579,5.38838298 0.190823579,3.49051064 C0.190823579,1.5926383 1.81394649,0.0543404255 3.81647157,0.0543404255 C5.81899666,0.0543404255 7.44211957,1.5926383 7.44211957,3.49051064 C7.44211957,5.38838298 5.81899666,6.92668085 3.81647157,6.92668085" id="Fill-1" fill="#F15A83" mask="url(#mask-6)"></path>
                        </g>
                        <g id="Group-6" transform="translate(0.000000, 8.456255)">
                            <mask id="mask-8" fill="white">
                                <use xlink:href="#path-7"></use>
                            </mask>
                            <g id="Clip-5"></g>
                            <path d="M13.6001087,0.0114042553 L3.91076087,0.0114042553 C1.75063796,0.0114042553 0,1.67055319 0,3.71778723 L0,11.4897021 L17.5108696,11.4897021 L17.5108696,3.71778723 C17.5108696,1.67055319 15.7602316,0.0114042553 13.6001087,0.0114042553" id="Fill-4" fill="#F15A83" mask="url(#mask-8)"></path>
                        </g>
                    </g>
                    <g id="Group-7-Copy-2" transform="translate(43.777174, 0.000000)">
                        <g id="Group-3" transform="translate(4.938963, 0.371149)">
                            <mask id="mask-10" fill="white">
                                <use xlink:href="#path-9"></use>
                            </mask>
                            <g id="Clip-2"></g>
                            <path d="M3.81647157,6.92668085 C1.81394649,6.92668085 0.190823579,5.38838298 0.190823579,3.49051064 C0.190823579,1.5926383 1.81394649,0.0543404255 3.81647157,0.0543404255 C5.81899666,0.0543404255 7.44211957,1.5926383 7.44211957,3.49051064 C7.44211957,5.38838298 5.81899666,6.92668085 3.81647157,6.92668085" id="Fill-1" fill="#F15A83" mask="url(#mask-10)"></path>
                        </g>
                        <g id="Group-6" transform="translate(0.000000, 8.456255)">
                            <mask id="mask-12" fill="white">
                                <use xlink:href="#path-11"></use>
                            </mask>
                            <g id="Clip-5"></g>
                            <path d="M13.6001087,0.0114042553 L3.91076087,0.0114042553 C1.75063796,0.0114042553 0,1.67055319 0,3.71778723 L0,11.4897021 L17.5108696,11.4897021 L17.5108696,3.71778723 C17.5108696,1.67055319 15.7602316,0.0114042553 13.6001087,0.0114042553" id="Fill-4" fill="#F15A83" mask="url(#mask-12)"></path>
                        </g>
                    </g>
                    <g id="Group-7-Copy-8" transform="translate(0.000000, 52.000000)">
                        <g id="Group-3" transform="translate(4.938963, 0.371149)">
                            <mask id="mask-14" fill="white">
                                <use xlink:href="#path-13"></use>
                            </mask>
                            <g id="Clip-2"></g>
                            <path d="M3.81647157,6.92668085 C1.81394649,6.92668085 0.190823579,5.38838298 0.190823579,3.49051064 C0.190823579,1.5926383 1.81394649,0.0543404255 3.81647157,0.0543404255 C5.81899666,0.0543404255 7.44211957,1.5926383 7.44211957,3.49051064 C7.44211957,5.38838298 5.81899666,6.92668085 3.81647157,6.92668085" id="Fill-1" fill="#F15A83" mask="url(#mask-14)"></path>
                        </g>
                        <g id="Group-6" transform="translate(0.000000, 8.456255)">
                            <mask id="mask-16" fill="white">
                                <use xlink:href="#path-15"></use>
                            </mask>
                            <g id="Clip-5"></g>
                            <path d="M13.6001087,0.0114042553 L3.91076087,0.0114042553 C1.75063796,0.0114042553 0,1.67055319 0,3.71778723 L0,11.4897021 L17.5108696,11.4897021 L17.5108696,3.71778723 C17.5108696,1.67055319 15.7602316,0.0114042553 13.6001087,0.0114042553" id="Fill-4" fill="#F15A83" mask="url(#mask-16)"></path>
                        </g>
                    </g>
                    <g id="Group-7-Copy-6" transform="translate(43.777174, 52.000000)">
                        <g id="Group-3" transform="translate(4.938963, 0.371149)">
                            <mask id="mask-18" fill="white">
                                <use xlink:href="#path-17"></use>
                            </mask>
                            <g id="Clip-2"></g>
                            <path d="M3.81647157,6.92668085 C1.81394649,6.92668085 0.190823579,5.38838298 0.190823579,3.49051064 C0.190823579,1.5926383 1.81394649,0.0543404255 3.81647157,0.0543404255 C5.81899666,0.0543404255 7.44211957,1.5926383 7.44211957,3.49051064 C7.44211957,5.38838298 5.81899666,6.92668085 3.81647157,6.92668085" id="Fill-1" fill="#F15A83" mask="url(#mask-18)"></path>
                        </g>
                        <g id="Group-6" transform="translate(0.000000, 8.456255)">
                            <mask id="mask-20" fill="white">
                                <use xlink:href="#path-19"></use>
                            </mask>
                            <g id="Clip-5"></g>
                            <path d="M13.6001087,0.0114042553 L3.91076087,0.0114042553 C1.75063796,0.0114042553 0,1.67055319 0,3.71778723 L0,11.4897021 L17.5108696,11.4897021 L17.5108696,3.71778723 C17.5108696,1.67055319 15.7602316,0.0114042553 13.6001087,0.0114042553" id="Fill-4" fill="#F15A83" mask="url(#mask-20)"></path>
                        </g>
                    </g>
                    <g id="Group-7-Copy-5" transform="translate(43.777174, 26.000000)">
                        <g id="Group-3" transform="translate(4.938963, 0.371149)">
                            <mask id="mask-22" fill="white">
                                <use xlink:href="#path-21"></use>
                            </mask>
                            <g id="Clip-2"></g>
                            <path d="M3.81647157,6.92668085 C1.81394649,6.92668085 0.190823579,5.38838298 0.190823579,3.49051064 C0.190823579,1.5926383 1.81394649,0.0543404255 3.81647157,0.0543404255 C5.81899666,0.0543404255 7.44211957,1.5926383 7.44211957,3.49051064 C7.44211957,5.38838298 5.81899666,6.92668085 3.81647157,6.92668085" id="Fill-1" fill="#404D79" mask="url(#mask-22)"></path>
                        </g>
                        <g id="Group-6" transform="translate(0.000000, 8.456255)">
                            <mask id="mask-24" fill="white">
                                <use xlink:href="#path-23"></use>
                            </mask>
                            <g id="Clip-5"></g>
                            <path d="M13.6001087,0.0114042553 L3.91076087,0.0114042553 C1.75063796,0.0114042553 0,1.67055319 0,3.71778723 L0,11.4897021 L17.5108696,11.4897021 L17.5108696,3.71778723 C17.5108696,1.67055319 15.7602316,0.0114042553 13.6001087,0.0114042553" id="Fill-4" fill="#404D79" mask="url(#mask-24)"></path>
                        </g>
                    </g>
                    <g id="Group-7-Copy-9" transform="translate(0.000000, 26.000000)">
                        <g id="Group-3" transform="translate(4.938963, 0.371149)">
                            <mask id="mask-26" fill="white">
                                <use xlink:href="#path-25"></use>
                            </mask>
                            <g id="Clip-2"></g>
                            <path d="M3.81647157,6.92668085 C1.81394649,6.92668085 0.190823579,5.38838298 0.190823579,3.49051064 C0.190823579,1.5926383 1.81394649,0.0543404255 3.81647157,0.0543404255 C5.81899666,0.0543404255 7.44211957,1.5926383 7.44211957,3.49051064 C7.44211957,5.38838298 5.81899666,6.92668085 3.81647157,6.92668085" id="Fill-1" fill="#404D79" mask="url(#mask-26)"></path>
                        </g>
                        <g id="Group-6" transform="translate(0.000000, 8.456255)">
                            <mask id="mask-28" fill="white">
                                <use xlink:href="#path-27"></use>
                            </mask>
                            <g id="Clip-5"></g>
                            <path d="M13.6001087,0.0114042553 L3.91076087,0.0114042553 C1.75063796,0.0114042553 0,1.67055319 0,3.71778723 L0,11.4897021 L17.5108696,11.4897021 L17.5108696,3.71778723 C17.5108696,1.67055319 15.7602316,0.0114042553 13.6001087,0.0114042553" id="Fill-4" fill="#404D79" mask="url(#mask-28)"></path>
                        </g>
                    </g>
                    <g id="Group-7-Copy-10" transform="translate(21.402174, 0.000000)">
                        <g id="Group-3" transform="translate(4.938963, 0.371149)">
                            <mask id="mask-30" fill="white">
                                <use xlink:href="#path-29"></use>
                            </mask>
                            <g id="Clip-2"></g>
                            <path d="M3.81647157,6.92668085 C1.81394649,6.92668085 0.190823579,5.38838298 0.190823579,3.49051064 C0.190823579,1.5926383 1.81394649,0.0543404255 3.81647157,0.0543404255 C5.81899666,0.0543404255 7.44211957,1.5926383 7.44211957,3.49051064 C7.44211957,5.38838298 5.81899666,6.92668085 3.81647157,6.92668085" id="Fill-1" fill="#404D79" mask="url(#mask-30)"></path>
                        </g>
                        <g id="Group-6" transform="translate(0.000000, 8.456255)">
                            <mask id="mask-32" fill="white">
                                <use xlink:href="#path-31"></use>
                            </mask>
                            <g id="Clip-5"></g>
                            <path d="M13.6001087,0.0114042553 L3.91076087,0.0114042553 C1.75063796,0.0114042553 0,1.67055319 0,3.71778723 L0,11.4897021 L17.5108696,11.4897021 L17.5108696,3.71778723 C17.5108696,1.67055319 15.7602316,0.0114042553 13.6001087,0.0114042553" id="Fill-4" fill="#404D79" mask="url(#mask-32)"></path>
                        </g>
                    </g>
                    <g id="Group-7-Copy-11" transform="translate(21.402174, 52.000000)">
                        <g id="Group-3" transform="translate(4.938963, 0.371149)">
                            <mask id="mask-34" fill="white">
                                <use xlink:href="#path-33"></use>
                            </mask>
                            <g id="Clip-2"></g>
                            <path d="M3.81647157,6.92668085 C1.81394649,6.92668085 0.190823579,5.38838298 0.190823579,3.49051064 C0.190823579,1.5926383 1.81394649,0.0543404255 3.81647157,0.0543404255 C5.81899666,0.0543404255 7.44211957,1.5926383 7.44211957,3.49051064 C7.44211957,5.38838298 5.81899666,6.92668085 3.81647157,6.92668085" id="Fill-1" fill="#404D79" mask="url(#mask-34)"></path>
                        </g>
                        <g id="Group-6" transform="translate(0.000000, 8.456255)">
                            <mask id="mask-36" fill="white">
                                <use xlink:href="#path-35"></use>
                            </mask>
                            <g id="Clip-5"></g>
                            <path d="M13.6001087,0.0114042553 L3.91076087,0.0114042553 C1.75063796,0.0114042553 0,1.67055319 0,3.71778723 L0,11.4897021 L17.5108696,11.4897021 L17.5108696,3.71778723 C17.5108696,1.67055319 15.7602316,0.0114042553 13.6001087,0.0114042553" id="Fill-4" fill="#404D79" mask="url(#mask-36)"></path>
                        </g>
                    </g>
                </g>
            </g>
        </g>
    </g>
</svg>