<?xml version="1.0" encoding="UTF-8"?>
<svg width="92px" height="60px" viewBox="0 0 92 60" version="1.1" xmlns="http://www.w3.org/2000/svg" xmlns:xlink="http://www.w3.org/1999/xlink">
    <!-- Generator: Sketch 51.3 (57544) - http://www.bohemiancoding.com/sketch -->
    <title>Group 5</title>
    <desc>Created with Sketch.</desc>
    <defs>
        <polygon id="path-1" points="0 60 33 60 33 0 0 0"></polygon>
    </defs>
    <g id="Main" stroke="none" stroke-width="1" fill="none" fill-rule="evenodd">
        <g id="Desktop" transform="translate(-586.000000, -1869.000000)">
            <g id="Group-13-Copy" transform="translate(523.000000, 1835.000000)">
                <g id="Group-5" transform="translate(64.000000, 34.000000)">
                    <g id="Group-19">
                        <path d="M14.9188834,14.1176471 C23.5027665,14.1176471 30.4615385,21.0027672 30.4615385,29.4957983 C30.4615385,37.9888294 23.5027665,44.8739496 14.9188834,44.8739496 C9.55377574,44.8739496 4.8237482,42.1842036 2.03076923,38.093973" id="Stroke-1" stroke="#7DC770" stroke-width="7"></path>
                        <polygon id="Fill-3" fill="#7DC770" points="3.04615385 20.1758357 20.3004506 1.51260504 26.9076923 7.55525671 9.65339557 26.2184874"></polygon>
                        <path d="M20.2579313,0.504201681 L19.2859644,1.55578402 L3.00273613,19.1666639 L2.03076923,20.2178891 L3.08819166,21.184845 L8.63885153,26.2599349 L9.6959149,27.2268908 L10.6678818,26.1753084 L26.95111,8.56442858 L27.9230769,7.51320331 L26.8656545,6.54624746 L21.3149946,1.47115753 L20.2579313,0.504201681 Z M20.3430277,2.5223828 L25.8936876,7.5978298 L9.61081843,25.2087096 L4.06015856,20.1332626 L20.3430277,2.5223828 Z" id="Fill-5" fill="#FFFFFF"></path>
                        <polygon id="Fill-7" fill="#7DC770" points="19.8 3.3277156 21.8798959 1.00840336 26.9076923 5.74791466 24.8277964 8.06722689"></polygon>
                        <path d="M21.8320678,0 L20.8733864,1.06140132 L19.743651,2.3124416 L18.7846154,3.37384292 L19.8275843,4.34979855 L23.8330098,8.09931409 L24.8756245,9.07563025 L25.8346601,8.01422893 L26.9643955,6.76318865 L27.9230769,5.7014268 L26.8804622,4.72547117 L22.8746825,0.976316161 L21.8320678,0 Z M21.9156469,2.03771748 L25.9214266,5.78723302 L24.7916912,7.03791277 L20.7862657,3.28839723 L21.9156469,2.03771748 Z" id="Fill-9" fill="#FFFFFF"></path>
                        <mask id="mask-2" fill="white">
                            <use xlink:href="#path-1"></use>
                        </mask>
                        <g id="Clip-12"></g>
                        <polygon id="Fill-11" fill="#7DC770" mask="url(#mask-2)" points="12.1846154 54.4537815 19.2923077 54.4537815 19.2923077 44.8739496 12.1846154 44.8739496"></polygon>
                        <polygon id="Fill-13" fill="#7DC770" mask="url(#mask-2)" points="2.53846154 58.9915966 28.9384615 58.9915966 28.9384615 53.4453782 2.53846154 53.4453782"></polygon>
                        <path d="M29.4461538,52.9411765 L28.0142012,52.9411765 L2.95502959,52.9411765 L1.52307692,52.9411765 L1.52307692,54.3529412 L1.52307692,58.5882353 L1.52307692,60 L2.95502959,60 L28.0142012,60 L29.4461538,60 L29.4461538,58.5882353 L29.4461538,54.3529412 L29.4461538,52.9411765 Z M2.95502959,58.5882353 L28.0142012,58.5882353 L28.0142012,54.3529412 L2.95502959,54.3529412 L2.95502959,58.5882353 Z" id="Fill-14" fill="#FFFFFF" mask="url(#mask-2)"></path>
                        <path d="M20.0538462,19.1596639 C17.6742712,19.1596639 15.7384615,17.2371639 15.7384615,14.8739496 C15.7384615,12.5107353 17.6742712,10.5882353 20.0538462,10.5882353 C22.4334212,10.5882353 24.3692308,12.5107353 24.3692308,14.8739496 C24.3692308,17.2371639 22.4334212,19.1596639 20.0538462,19.1596639" id="Fill-15" fill="#7DC770" mask="url(#mask-2)"></path>
                        <path d="M19.8,10.0840336 C17.0004396,10.0840336 14.7230769,12.3457383 14.7230769,15.1260504 C14.7230769,17.9063625 17.0004396,20.1680672 19.8,20.1680672 C22.5995604,20.1680672 24.8769231,17.9063625 24.8769231,15.1260504 C24.8769231,12.3457383 22.5995604,10.0840336 19.8,10.0840336 M19.8,11.5246098 C21.8028462,11.5246098 23.4263736,13.1369748 23.4263736,15.1260504 C23.4263736,17.1151261 21.8028462,18.727491 19.8,18.727491 C17.7971538,18.727491 16.1736264,17.1151261 16.1736264,15.1260504 C16.1736264,13.1369748 17.7971538,11.5246098 19.8,11.5246098" id="Fill-16" fill="#FFFFFF" mask="url(#mask-2)"></path>
                        <path d="M15.4846154,48.907563 C13.1050404,48.907563 11.1692308,46.985063 11.1692308,44.6218487 C11.1692308,42.2586345 13.1050404,40.3361345 15.4846154,40.3361345 C17.8641904,40.3361345 19.8,42.2586345 19.8,44.6218487 C19.8,46.985063 17.8641904,48.907563 15.4846154,48.907563" id="Fill-17" fill="#7DC770" mask="url(#mask-2)"></path>
                        <path d="M15.7384615,39.8319328 C12.9389011,39.8319328 10.6615385,42.0936375 10.6615385,44.8739496 C10.6615385,47.6542617 12.9389011,49.9159664 15.7384615,49.9159664 C18.538022,49.9159664 20.8153846,47.6542617 20.8153846,44.8739496 C20.8153846,42.0936375 18.538022,39.8319328 15.7384615,39.8319328 M15.7384615,41.272509 C17.7413077,41.272509 19.3648352,42.8852341 19.3648352,44.8739496 C19.3648352,46.8626651 17.7413077,48.4753902 15.7384615,48.4753902 C13.7356154,48.4753902 12.1120879,46.8626651 12.1120879,44.8739496 C12.1120879,42.8852341 13.7356154,41.272509 15.7384615,41.272509" id="Fill-18" fill="#FFFFFF" mask="url(#mask-2)"></path>
                    </g>
                    <g id="Group-11" transform="translate(48.000000, 9.000000)">
                        <path d="M10.3319592,11.9833228 C7.70593981,9.38472632 7.70593981,5.15635789 10.3319592,2.55735789 C11.6041922,1.29881404 13.2956097,0.605182456 15.0946777,0.605182456 C16.8937456,0.605182456 18.5851631,1.29881404 19.8573961,2.55735789 L29.2038233,11.806586 L19.6787942,21.2325509 L10.3319592,11.9833228 Z" id="Fill-1" stroke="#F15A83" stroke-width="2" fill="#FFFFFF"></path>
                        <path d="M19.6787534,22.0883526 L29.4574136,31.7653 C32.3272777,34.6043877 36.9790835,34.6043877 39.848132,31.7653 C42.7171806,28.9262123 42.7171806,24.3225807 39.848132,21.483493 L30.0686563,11.8065456 L19.6787534,22.0883526 Z" id="Fill-5" stroke="#F15A83" fill="#F15A83"></path>
                        <path d="M16.0104408,43.2818439 C12.3478777,46.9057561 6.40956699,46.9057561 2.74700388,43.2818439 C-0.915559223,39.6575281 -0.915559223,33.7812298 2.74700388,30.156914 C6.40956699,26.5325982 12.3478777,26.5325982 16.0104408,30.156914 C19.6725961,33.7812298 19.6725961,39.6575281 16.0104408,43.2818439" id="Fill-7" fill="#F15A83"></path>
                        <path d="M2.74684078,43.2818439 L16.0102777,30.156914" id="Stroke-9" stroke="#FFFFFF" stroke-width="1.6"></path>
                    </g>
                </g>
            </g>
        </g>
    </g>
</svg>